<svg data-v-fde0c5aa="" xmlns="http://www.w3.org/2000/svg" viewBox="0 0 300 300" class="iconLeft"><!----><defs data-v-fde0c5aa=""><!----></defs><rect data-v-fde0c5aa="" fill="transparent" x="0" y="0" width="300px" height="300px" class="logo-background-square"></rect><defs data-v-fde0c5aa=""><!----></defs><g data-v-fde0c5aa="" id="7cd4b1ca-df0f-4c90-86bc-81957585d794" fill="#FFFFFF" transform="matrix(1.7090438238179382,0,0,1.7090438238179382,88.75381814370843,138.51522530224688)"><path d="M1.19 10.50L2.25 10.50L2.25 3.98C2.25 3.02 2.20 2.20 2.20 2.20L7.43 10.50L8.89 10.50L8.89 0.90L7.81 0.90L7.81 7.25C7.81 8.18 7.90 9.24 7.90 9.24L2.59 0.90L1.19 0.90ZM17.82 9.73L17.16 9.73C16.86 9.73 16.73 9.60 16.73 9.23L16.73 5.50C16.73 3.85 15.78 3.00 14.06 3.00C12.14 3.00 11.44 3.88 11.26 4.97L12.38 5.10C12.53 4.19 13.06 3.86 14 3.86C15.05 3.86 15.62 4.35 15.62 5.46L15.62 6.06L14.24 6.06C12.10 6.06 10.92 6.69 10.92 8.43C10.92 9.60 11.66 10.64 13.26 10.64C14.35 10.64 15.29 10.28 15.67 9.09L15.67 9.45C15.67 10.22 16.14 10.64 16.87 10.64C17.26 10.64 17.56 10.63 17.82 10.60ZM13.52 9.80C12.52 9.80 12.04 9.16 12.04 8.36C12.04 7.18 12.94 6.85 14.22 6.85L15.62 6.85L15.62 7.38C15.62 8.53 15.19 9.80 13.52 9.80ZM18.80 3.99L19.68 3.99L19.68 9.20C19.68 10.01 20.15 10.63 20.96 10.63L22.33 10.63L22.33 9.67L21.52 9.67C20.97 9.67 20.82 9.42 20.82 8.96L20.82 3.99L22.20 3.99L22.20 3.14L20.82 3.14L20.82 0.99L19.68 0.99L19.68 3.14L18.80 3.14ZM25.33 3.16L25.33-0.39L24.19-0.39L24.19 10.50L25.33 10.50L25.33 6.24C25.33 4.69 26.12 3.86 27.31 3.86C28.56 3.86 28.88 4.49 28.88 5.80L28.88 10.50L30.02 10.50L30.02 5.57C30.02 4.16 29.57 3.00 27.62 3.00C26.39 3.00 25.66 3.50 25.28 4.45C25.31 4.07 25.33 3.61 25.33 3.16ZM38.88 9.73L38.22 9.73C37.91 9.73 37.79 9.60 37.79 9.23L37.79 5.50C37.79 3.85 36.83 3.00 35.11 3.00C33.19 3.00 32.49 3.88 32.31 4.97L33.43 5.10C33.59 4.19 34.12 3.86 35.06 3.86C36.11 3.86 36.68 4.35 36.68 5.46L36.68 6.06L35.29 6.06C33.15 6.06 31.98 6.69 31.98 8.43C31.98 9.60 32.72 10.64 34.31 10.64C35.41 10.64 36.34 10.28 36.72 9.09L36.72 9.45C36.72 10.22 37.20 10.64 37.93 10.64C38.32 10.64 38.61 10.63 38.88 10.60ZM34.58 9.80C33.57 9.80 33.10 9.16 33.10 8.36C33.10 7.18 33.99 6.85 35.28 6.85L36.68 6.85L36.68 7.38C36.68 8.53 36.25 9.80 34.58 9.80ZM45.18 10.50L46.31 10.50L46.31 5.57C46.31 3.74 45.51 3.00 43.92 3.00C42.57 3.00 41.87 3.58 41.54 4.58C41.54 4.03 41.51 3.50 41.51 3.14L40.46 3.14C40.46 3.14 40.49 4.23 40.49 4.72L40.49 10.50L41.62 10.50L41.62 6.24C41.62 4.72 42.41 3.86 43.60 3.86C44.73 3.86 45.18 4.33 45.18 5.78ZM59.12 5.60C59.12 8.18 57.62 9.53 55.52 9.53L53.31 9.53L53.31 1.86L55.24 1.86C57.53 1.86 59.12 2.97 59.12 5.60ZM60.33 5.60C60.33 2.35 58.21 0.90 55.27 0.90L52.12 0.90L52.12 10.50L55.65 10.50C58.32 10.50 60.33 8.79 60.33 5.60ZM64.96 10.64C66.88 10.64 67.48 9.73 67.82 8.90L66.85 8.62C66.58 9.34 66.16 9.79 64.99 9.79C63.48 9.79 62.93 8.64 62.93 7.06L62.93 7.04L67.97 7.04C67.98 6.89 68.00 6.66 68.00 6.52C68.00 4.59 67.38 3.00 64.93 3.00C63.10 3.00 61.73 4.09 61.73 6.76C61.73 9.30 62.79 10.64 64.96 10.64ZM64.93 3.84C66.19 3.84 66.81 4.54 66.81 6.08L66.81 6.17L62.93 6.17C63.01 4.34 63.95 3.84 64.93 3.84ZM72.70 10.64C74.62 10.64 75.22 9.73 75.56 8.90L74.59 8.62C74.33 9.34 73.91 9.79 72.73 9.79C71.22 9.79 70.67 8.64 70.67 7.06L70.67 7.04L75.71 7.04C75.73 6.89 75.74 6.66 75.74 6.52C75.74 4.59 75.12 3.00 72.67 3.00C70.84 3.00 69.47 4.09 69.47 6.76C69.47 9.30 70.53 10.64 72.70 10.64ZM72.67 3.84C73.93 3.84 74.55 4.54 74.55 6.08L74.55 6.17L70.67 6.17C70.76 4.34 71.69 3.84 72.67 3.84ZM81.09 4.07L81.09 3.02C80.88 3.01 80.77 3.01 80.70 3.01C79.66 3.01 79.02 3.61 78.81 4.59L78.75 3.14L77.67 3.14L77.71 4.84L77.71 10.50L78.85 10.50L78.85 6.13C78.85 5.14 79.35 4.06 80.60 4.06C80.74 4.06 80.88 4.06 81.09 4.07ZM82.80 10.50L83.92 10.50L83.92 3.14L82.80 3.14ZM82.74 1.61L83.97 1.61L83.97 0.35L82.74 0.35ZM91.01 10.50L92.15 10.50L92.15 5.57C92.15 3.74 91.35 3.00 89.75 3.00C88.41 3.00 87.71 3.58 87.37 4.58C87.37 4.03 87.35 3.50 87.35 3.14L86.30 3.14C86.30 3.14 86.32 4.23 86.32 4.72L86.32 10.50L87.46 10.50L87.46 6.24C87.46 4.72 88.24 3.86 89.43 3.86C90.57 3.86 91.01 4.33 91.01 5.78ZM96.61 10.57C97.87 10.57 98.64 9.93 99.02 9.04L99.02 9.20L99.04 10.78C99.04 12.35 98.31 12.96 97.13 12.96C96.18 12.96 95.59 12.57 95.42 11.87L94.29 12.04C94.54 13.10 95.41 13.83 97.10 13.83C99.16 13.83 100.17 12.81 100.17 10.75L100.16 4.63L100.20 3.14L99.12 3.14L99.06 4.47C98.78 3.64 98.03 3.00 96.74 3.00C94.74 3.00 93.97 4.44 93.97 6.82C93.97 9.30 94.74 10.57 96.61 10.57ZM99.02 6.80C99.02 8.89 98.03 9.72 96.99 9.72C95.72 9.72 95.14 8.97 95.14 6.80C95.14 4.72 95.72 3.86 97.02 3.86C98.10 3.86 99.02 4.73 99.02 6.80Z"></path></g><defs data-v-fde0c5aa=""><linearGradient data-v-fde0c5aa="" gradientTransform="rotate(25)" id="81e4b7fc-3255-4e6f-83a6-4e466fe14869" x1="0%" y1="0%" x2="100%" y2="0%"><stop data-v-fde0c5aa="" offset="0%" stop-color="#170DE9" stop-opacity="1"></stop><stop data-v-fde0c5aa="" offset="100%" stop-color="#9C9BAD" stop-opacity="1"></stop></linearGradient></defs><g data-v-fde0c5aa="" id="6c76e498-15de-446d-8b75-85e91d84c2d1" stroke="none" fill="url(#81e4b7fc-3255-4e6f-83a6-4e466fe14869)" transform="matrix(0.5927464300257321,0,0,0.5927464300257321,29.256470955783605,120.21449189120695)"><path d="M78.8 47l-9.4-16.3c-4.1-7-11.3-11.2-19.4-11.2-8.1 0-15.4 4.2-19.4 11.2L21.2 47c-4.1 7-4.1 15.6 0 22.6 4.1 7 11.3 11.4 19.4 11.4h18.8c8.1 0 15.4-4.4 19.4-11.4 4.1-7 4.1-15.6 0-22.6zm-10.4 2c3.3 5.8 3.3 12.6 0 18.4-1.9 3.3-4.6 5.8-7.8 7.3 1.7-1.5 3.1-3.3 4.3-5.3 4.1-7 4.1-15.4 0-22.4l-3-5.2c.9.1 1.7.2 2.6.4l3.9 6.8zm-7.8-11.3c-8.1 0-15.4 4.2-19.4 11.2l-2.5 4.4c-.6-.5-1.1-1.1-1.6-1.7l4-6.9c3.3-5.8 9.3-9.2 15.9-9.2 3.9 0 7.5 1.2 10.6 3.3-2.3-.7-4.6-1.1-7-1.1zm-6.4 11.1c1.7 2.9 2.5 6.2 2.5 9.2h-5.6c-3.4 0-6.5-.8-9.3-2.4l2.8-4.7c1.7-2.9 4-5.3 6.8-6.8l2.8 4.7zm-25-4.3c.5 2.3 1.3 4.4 2.5 6.4C35.8 57.9 43 62 51.1 62h5.1c-.2 1-.4 2-.7 2h-8c-6.7 0-12.6-3.2-15.9-9-1.9-3.3-2.7-6.9-2.4-10.5zm34.5-11.9c-2.1-.7-4.4-1-6.7-1-8.1 0-15.4 4.2-19.4 11.2l-3 5.2c-.4-.8-.7-1.6-1-2.4l3.9-6.8c3.3-5.8 9.3-9.2 15.9-9.2 3.9-.1 7.4 1 10.3 3zm-38 18.2C26.2 53 27 55 28.2 57c4.1 7 11.3 11 19.4 11h6c-.5 1-1 2-1.6 3h-7.9c-6.7 0-12.6-3.7-15.9-9.5-1.9-3.2-2.8-7.1-2.5-10.7zm32 18.6c4.1-7 4.1-15.4 0-22.4l-2.5-4.4c.7-.2 1.5-.4 2.2-.5l4 6.9c3.3 5.8 3.3 12.6 0 18.4-1.9 3.4-4.8 5.9-8.1 7.5 1.6-1.6 3.2-3.4 4.4-5.5zm-7.7-46c3.8 0 7.3 1.1 10.3 3.1-2.2-.7-4.4-1-6.8-1-8.1 0-15.4 4.2-19.4 11.2L32.7 39c.1-2.5.7-5 1.9-7.4 3.5-5.1 9.1-8.2 15.4-8.2zm-25.4 44c-1.9-3.2-2.7-6.9-2.5-10.4.5 2.2 1.3 4.6 2.5 6.6C28.7 70.6 36 75 44.1 75h2.7c-2.2 1-4.7 1.6-7.4 1.8-6.2-.4-11.6-4-14.8-9.4zm50.8 0c-1.9 3.3-4.6 5.8-7.8 7.3 1.6-1.5 3.1-3.3 4.3-5.3 4.1-7 4.1-15.4 0-22.4l-1.3-2.3c2.1 1.4 4 3.2 5.4 5.4 2.7 5.4 2.5 11.8-.6 17.3z"></path></g><!----></svg>